# xmcd
#
# Track frame offsets:
#	150
#	17506
#	33560
#	50609
#	70938
#	88609
#	111520
#	128467
#	145044
#	168566
#	192516
#	206664
#	230903
#	245787
#
# Disc length: 3802 seconds
#
# Revision: 1
# Processed by: cddbd v1.5.2PL0 Copyright (c) Steve Scherf et al.
# Submitted via: audiograbber 1.83.01
#
DISCID=cf0ed80e
DTITLE=Flávio Guimarães and Prado Blues Band - Flávio Guimarães and Prado Blues Ban
DTITLE=d
DYEAR=2006
DGENRE=Blues
TTITLE0=I MAY BE WRONG
TTITLE1=MISSING MR CLARKE
TTITLE2=T BONE SHUFFLE
TTITLE3=RIDING WITH RAIN
TTITLE4=PLEASE SEND HER HOME TO ME
TTITLE5=TIN PAN ALLEY
TTITLE6=GEORGE´S BOOGIE
TTITLE7=LAZY THING
TTITLE8=BELLOW´S SHUFFLE
TTITLE9=SWING ME BABY
TTITLE10=PUT THE KETTLE ON 
TTITLE11=GOING HOME TOMORROW
TTITLE12=BOOGIE DO CAUê
TTITLE13=LOUISE
EXTD=
EXTT0=
EXTT1=
EXTT2=
EXTT3=
EXTT4=
EXTT5=
EXTT6=
EXTT7=
EXTT8=
EXTT9=
EXTT10=
EXTT11=
EXTT12=
EXTT13=
PLAYORDER=
